<svg width="25" height="24" viewBox="0 0 25 24" fill="none" xmlns="http://www.w3.org/2000/svg">
<path d="M6.16892 0C3.09762 0 0.617825 2.49136 0.612829 5.56781L0.600349 13.2629C0.59551 16.2036 2.87466 18.5829 5.75567 18.7917V23.5993C5.75555 23.6786 5.77897 23.7561 5.82296 23.822C5.86696 23.8879 5.92954 23.9393 6.00278 23.9696C6.07601 23.9999 6.15659 24.0078 6.2343 23.9922C6.31201 23.9766 6.38334 23.9383 6.43925 23.8822L11.4774 18.8315H19.0444C22.1157 18.8315 24.5997 16.3408 24.5997 13.2637V5.5686C24.5997 2.4926 22.1282 0 19.0568 0H6.16892ZM8.60089 8.21696C9.25886 8.21696 9.80008 8.75901 9.80007 9.41693C9.80006 10.0748 9.25885 10.6169 8.60089 10.6169C7.94293 10.6169 7.40093 10.0748 7.40092 9.41693C7.40092 8.75901 7.94292 8.21696 8.60089 8.21696ZM12.6 8.21696C13.258 8.21696 13.8 8.75901 13.8 9.41693C13.8 10.0748 13.258 10.6169 12.6 10.6169C11.942 10.6169 11.4 10.0748 11.4 9.41693C11.4 8.75901 11.942 8.21696 12.6 8.21696ZM16.6007 8.21696C17.2586 8.21696 17.8006 8.75901 17.8006 9.41693C17.8006 10.0748 17.2586 10.6169 16.6007 10.6169C15.9427 10.6169 15.3999 10.0748 15.3999 9.41693C15.3999 8.75901 15.9427 8.21696 16.6007 8.21696Z" fill="#FCA212"/>
</svg>
