<svg width="25" height="24" viewBox="0 0 25 24" fill="none" xmlns="http://www.w3.org/2000/svg">
<g clip-path="url(#clip0_745_90940)">
<path d="M12.2285 11.5609C13.8168 11.5609 15.1919 10.9913 16.3158 9.86735C17.4393 8.74364 18.0091 7.3687 18.0091 5.78026C18.0091 4.19237 17.4395 2.81726 16.3156 1.69317C15.1917 0.56964 13.8166 0 12.2285 0C10.6401 0 9.26513 0.56964 8.14142 1.69336C7.0177 2.81707 6.44788 4.19219 6.44788 5.78026C6.44788 7.3687 7.0177 8.74382 8.14142 9.86753C9.2655 10.9911 10.6406 11.5609 12.2285 11.5609ZM9.13604 2.6878C9.99828 1.82556 11.0098 1.40643 12.2285 1.40643C13.4471 1.40643 14.4587 1.82556 15.3211 2.6878C16.1834 3.55023 16.6027 4.56188 16.6027 5.78026C16.6027 6.99901 16.1834 8.01048 15.3211 8.87291C14.4587 9.73533 13.4471 10.1545 12.2285 10.1545C11.0101 10.1545 9.99865 9.73515 9.13604 8.87291C8.27362 8.01067 7.85431 6.99901 7.85431 5.78026C7.85431 4.56188 8.27362 3.55023 9.13604 2.6878Z" fill="#808080"/>
<path d="M22.3435 18.4549C22.3111 17.9872 22.2456 17.4771 22.1491 16.9384C22.0517 16.3957 21.9262 15.8826 21.7761 15.4137C21.6208 14.929 21.4101 14.4504 21.1491 13.9917C20.8787 13.5156 20.5608 13.1011 20.2041 12.7599C19.8311 12.4031 19.3745 12.1161 18.8464 11.9069C18.3202 11.6987 17.737 11.5932 17.1131 11.5932C16.8681 11.5932 16.6312 11.6937 16.1736 11.9916C15.892 12.1753 15.5626 12.3877 15.1949 12.6226C14.8805 12.8229 14.4546 13.0106 13.9286 13.1805C13.4153 13.3466 12.8942 13.4308 12.3797 13.4308C11.8655 13.4308 11.3444 13.3466 10.8308 13.1805C10.3053 13.0108 9.8792 12.8231 9.56535 12.6228C9.20116 12.3901 8.87157 12.1777 8.58574 11.9915C8.12853 11.6935 7.89159 11.593 7.6466 11.593C7.02257 11.593 6.43957 11.6987 5.91351 11.907C5.3858 12.116 4.92895 12.4029 4.5556 12.7601C4.19891 13.1014 3.88104 13.5158 3.61078 13.9917C3.35022 14.4504 3.13928 14.9288 2.98401 15.4139C2.83404 15.8828 2.70862 16.3957 2.61121 16.9384C2.51453 17.4764 2.44916 17.9867 2.41675 18.4554C2.38489 18.9137 2.36877 19.3907 2.36877 19.8727C2.36877 21.1255 2.76703 22.1397 3.55237 22.8877C4.328 23.6258 5.35412 24 6.60235 24H18.1585C19.4063 24 20.4325 23.6258 21.2083 22.8877C21.9938 22.1402 22.3921 21.1257 22.3921 19.8725C22.3919 19.3889 22.3756 18.9119 22.3435 18.4549ZM20.2386 21.8687C19.726 22.3565 19.0456 22.5936 18.1583 22.5936H6.60235C5.71484 22.5936 5.03442 22.3565 4.52209 21.8689C4.01947 21.3904 3.7752 20.7373 3.7752 19.8727C3.7752 19.423 3.79004 18.9789 3.8197 18.5527C3.84863 18.1344 3.90777 17.675 3.99548 17.1869C4.08209 16.7048 4.19232 16.2523 4.32342 15.8427C4.44921 15.4499 4.62078 15.061 4.83355 14.6864C5.03662 14.3293 5.27026 14.023 5.52807 13.7762C5.76922 13.5453 6.07317 13.3563 6.43133 13.2146C6.76256 13.0835 7.13482 13.0117 7.53893 13.0009C7.58819 13.0271 7.67589 13.0771 7.81798 13.1697C8.10711 13.3582 8.44036 13.5731 8.80876 13.8084C9.22405 14.0732 9.75908 14.3123 10.3983 14.5187C11.0518 14.73 11.7183 14.8373 12.3799 14.8373C13.0414 14.8373 13.7081 14.73 14.3612 14.5189C15.001 14.3121 15.5359 14.0732 15.9517 13.808C16.3287 13.5671 16.6526 13.3583 16.9417 13.1697C17.0838 13.0773 17.1715 13.0271 17.2208 13.0009C17.6251 13.0117 17.9973 13.0835 18.3288 13.2146C18.6867 13.3563 18.9907 13.5455 19.2318 13.7762C19.4897 14.0228 19.7233 14.3292 19.9264 14.6866C20.1393 15.061 20.3111 15.4501 20.4367 15.8425C20.568 16.2527 20.6784 16.7049 20.7648 17.1867C20.8523 17.6758 20.9116 18.1354 20.9406 18.5528V18.5532C20.9704 18.9778 20.9854 19.4217 20.9856 19.8727C20.9854 20.7375 20.7412 21.3904 20.2386 21.8687Z" fill="#808080"/>
</g>
<defs>
<clipPath id="clip0_745_90940">
<rect width="24" height="24" fill="white" transform="translate(0.400024)"/>
</clipPath>
</defs>
</svg>
