<svg width="24" height="24" viewBox="0 0 24 24" fill="none" xmlns="http://www.w3.org/2000/svg">
<path d="M4 7.15385C4 14.8006 9.85497 21 17.0769 21H19.0385C19.5587 21 20.0576 20.7812 20.4255 20.3917C20.7933 20.0022 21 19.4739 21 18.9231V17.6566C21 17.1803 20.694 16.7649 20.2572 16.6495L16.4013 15.6286C16.0177 15.5271 15.6149 15.6794 15.3787 16.0135L14.533 17.2071C14.2872 17.5542 13.8626 17.7074 13.4782 17.5578C12.0509 17.0023 10.7548 16.1249 9.67955 14.9864C8.60431 13.8479 7.77563 12.4755 7.25092 10.9643C7.10969 10.5572 7.25441 10.1077 7.5822 9.84738L8.70944 8.952C9.0259 8.70185 9.16887 8.27446 9.07297 7.86923L8.10877 3.78646C8.05571 3.56187 7.9333 3.3625 7.76097 3.22C7.58864 3.07751 7.37629 3.00008 7.15764 3H5.96154C5.44131 3 4.94238 3.21882 4.57452 3.60832C4.20666 3.99782 4 4.52609 4 5.07692V7.15385Z" fill="black" stroke="black" stroke-linecap="round" stroke-linejoin="round"/>
</svg>
