<svg width="24" height="24" viewBox="0 0 24 24" fill="none" xmlns="http://www.w3.org/2000/svg">
<path fill-rule="evenodd" clip-rule="evenodd" d="M3.9 13.7998C3.40294 13.7998 3 14.2027 3 14.6998V20.0998C3 20.5969 3.40294 20.9998 3.9 20.9998H9.3C9.79706 20.9998 10.2 20.5969 10.2 20.0998V14.6998C10.2 14.2027 9.79706 13.7998 9.3 13.7998H3.9ZM4.7801 15.3994C4.68069 15.3994 4.6001 15.48 4.6001 15.5794V19.2194C4.6001 19.3188 4.68069 19.3994 4.7801 19.3994H8.4201C8.51951 19.3994 8.6001 19.3188 8.6001 19.2194V15.5794C8.6001 15.48 8.51951 15.3994 8.4201 15.3994H4.7801Z" fill="black"/>
<path d="M3.72 14.6998C3.72 14.6004 3.80059 14.5198 3.9 14.5198V13.0798C3.0053 13.0798 2.28 13.8051 2.28 14.6998H3.72ZM3.72 20.0998V14.6998H2.28V20.0998H3.72ZM3.9 20.2798C3.80059 20.2798 3.72 20.1992 3.72 20.0998H2.28C2.28 20.9945 3.0053 21.7198 3.9 21.7198V20.2798ZM9.3 20.2798H3.9V21.7198H9.3V20.2798ZM9.48 20.0998C9.48 20.1992 9.39941 20.2798 9.3 20.2798V21.7198C10.1947 21.7198 10.92 20.9945 10.92 20.0998H9.48ZM9.48 14.6998V20.0998H10.92V14.6998H9.48ZM9.3 14.5198C9.39941 14.5198 9.48 14.6004 9.48 14.6998H10.92C10.92 13.8051 10.1947 13.0798 9.3 13.0798V14.5198ZM3.9 14.5198H9.3V13.0798H3.9V14.5198ZM5.3201 15.5794C5.3201 15.8776 5.07833 16.1194 4.7801 16.1194V14.6794C4.28304 14.6794 3.8801 15.0824 3.8801 15.5794H5.3201ZM5.3201 19.2194V15.5794H3.8801V19.2194H5.3201ZM4.7801 18.6794C5.07833 18.6794 5.3201 18.9212 5.3201 19.2194H3.8801C3.8801 19.7165 4.28304 20.1194 4.7801 20.1194V18.6794ZM8.4201 18.6794H4.7801V20.1194H8.4201V18.6794ZM7.8801 19.2194C7.8801 18.9212 8.12186 18.6794 8.4201 18.6794V20.1194C8.91716 20.1194 9.3201 19.7165 9.3201 19.2194H7.8801ZM7.8801 15.5794V19.2194H9.3201V15.5794H7.8801ZM8.4201 16.1194C8.12187 16.1194 7.8801 15.8776 7.8801 15.5794H9.3201C9.3201 15.0824 8.91715 14.6794 8.4201 14.6794V16.1194ZM4.7801 16.1194H8.4201V14.6794H4.7801V16.1194Z" fill="black"/>
<rect x="12.8999" y="13.7998" width="0.9" height="0.9" rx="0.0045" fill="black" stroke="black" stroke-width="1.44"/>
<rect x="16.5" y="17.4004" width="0.9" height="0.9" rx="0.0045" fill="black" stroke="black" stroke-width="1.44"/>
<rect x="12.8999" y="20.0996" width="0.9" height="0.9" rx="0.0045" fill="black" stroke="black" stroke-width="1.44"/>
<rect x="20.1001" y="20.0996" width="0.9" height="0.9" rx="0.0045" fill="black" stroke="black" stroke-width="1.44"/>
<rect x="20.1001" y="13.7998" width="0.9" height="0.9" rx="0.0045" fill="black" stroke="black" stroke-width="1.44"/>
<path fill-rule="evenodd" clip-rule="evenodd" d="M3.9 3C3.40294 3 3 3.40294 3 3.9V9.3C3 9.79706 3.40294 10.2 3.9 10.2H9.3C9.79706 10.2 10.2 9.79706 10.2 9.3V3.9C10.2 3.40294 9.79706 3 9.3 3H3.9ZM4.78 4.6002C4.68059 4.6002 4.6 4.68078 4.6 4.7802V8.4202C4.6 8.51961 4.68059 8.6002 4.78 8.6002H8.42C8.51941 8.6002 8.6 8.51961 8.6 8.4202V4.7802C8.6 4.68078 8.51941 4.6002 8.42 4.6002H4.78Z" fill="black"/>
<path d="M3.72 3.9C3.72 3.80059 3.80059 3.72 3.9 3.72V2.28C3.0053 2.28 2.28 3.0053 2.28 3.9H3.72ZM3.72 9.3V3.9H2.28V9.3H3.72ZM3.9 9.48C3.80059 9.48 3.72 9.39941 3.72 9.3H2.28C2.28 10.1947 3.0053 10.92 3.9 10.92V9.48ZM9.3 9.48H3.9V10.92H9.3V9.48ZM9.48 9.3C9.48 9.39941 9.39941 9.48 9.3 9.48V10.92C10.1947 10.92 10.92 10.1947 10.92 9.3H9.48ZM9.48 3.9V9.3H10.92V3.9H9.48ZM9.3 3.72C9.39941 3.72 9.48 3.80059 9.48 3.9H10.92C10.92 3.0053 10.1947 2.28 9.3 2.28V3.72ZM3.9 3.72H9.3V2.28H3.9V3.72ZM5.32 4.7802C5.32 5.07843 5.07823 5.3202 4.78 5.3202V3.8802C4.28294 3.8802 3.88 4.28314 3.88 4.7802H5.32ZM5.32 8.4202V4.7802H3.88V8.4202H5.32ZM4.78 7.8802C5.07823 7.8802 5.32 8.12196 5.32 8.4202H3.88C3.88 8.91725 4.28294 9.3202 4.78 9.3202V7.8802ZM8.42 7.8802H4.78V9.3202H8.42V7.8802ZM7.88 8.4202C7.88 8.12196 8.12176 7.8802 8.42 7.8802V9.3202C8.91706 9.3202 9.32 8.91725 9.32 8.4202H7.88ZM7.88 4.7802V8.4202H9.32V4.7802H7.88ZM8.42 5.3202C8.12177 5.3202 7.88 5.07843 7.88 4.7802H9.32C9.32 4.28314 8.91706 3.8802 8.42 3.8802V5.3202ZM4.78 5.3202H8.42V3.8802H4.78V5.3202Z" fill="black"/>
<path fill-rule="evenodd" clip-rule="evenodd" d="M14.7 3C14.203 3 13.8 3.40294 13.8 3.9V9.3C13.8 9.79706 14.203 10.2 14.7 10.2H20.1C20.5971 10.2 21 9.79706 21 9.3V3.9C21 3.40294 20.5971 3 20.1 3H14.7ZM15.58 4.6C15.4806 4.6 15.4 4.68059 15.4 4.78V8.42C15.4 8.51941 15.4806 8.6 15.58 8.6H19.22C19.3194 8.6 19.4 8.51941 19.4 8.42V4.78C19.4 4.68059 19.3194 4.6 19.22 4.6H15.58Z" fill="black"/>
<path d="M14.52 3.9C14.52 3.80059 14.6006 3.72 14.7 3.72V2.28C13.8053 2.28 13.08 3.0053 13.08 3.9H14.52ZM14.52 9.3V3.9H13.08V9.3H14.52ZM14.7 9.48C14.6006 9.48 14.52 9.39941 14.52 9.3H13.08C13.08 10.1947 13.8053 10.92 14.7 10.92V9.48ZM20.1 9.48H14.7V10.92H20.1V9.48ZM20.28 9.3C20.28 9.39941 20.1995 9.48 20.1 9.48V10.92C20.9948 10.92 21.72 10.1947 21.72 9.3H20.28ZM20.28 3.9V9.3H21.72V3.9H20.28ZM20.1 3.72C20.1995 3.72 20.28 3.80059 20.28 3.9H21.72C21.72 3.0053 20.9947 2.28 20.1 2.28V3.72ZM14.7 3.72H20.1V2.28H14.7V3.72ZM16.12 4.78C16.12 5.07823 15.8782 5.32 15.58 5.32V3.88C15.0829 3.88 14.68 4.28294 14.68 4.78H16.12ZM16.12 8.42V4.78H14.68V8.42H16.12ZM15.58 7.88C15.8782 7.88 16.12 8.12177 16.12 8.42H14.68C14.68 8.91706 15.0829 9.32 15.58 9.32V7.88ZM19.22 7.88H15.58V9.32H19.22V7.88ZM18.68 8.42C18.68 8.12176 18.9218 7.88 19.22 7.88V9.32C19.7171 9.32 20.12 8.91706 20.12 8.42H18.68ZM18.68 4.78V8.42H20.12V4.78H18.68ZM19.22 5.32C18.9218 5.32 18.68 5.07823 18.68 4.78H20.12C20.12 4.28294 19.7171 3.88 19.22 3.88V5.32ZM15.58 5.32H19.22V3.88H15.58V5.32Z" fill="black"/>
</svg>
