<svg width="24" height="24" viewBox="0 0 24 24" fill="none" xmlns="http://www.w3.org/2000/svg">
<path fill-rule="evenodd" clip-rule="evenodd" d="M18.8564 19.279C19.8503 18.3451 20.642 17.2173 21.1827 15.9653C21.7234 14.7133 22.0016 13.3638 22 12C22 6.47692 17.5231 2 12 2C6.47693 2 2.00001 6.47692 2.00001 12C1.99843 13.3638 2.27659 14.7133 2.81729 15.9653C3.35799 17.2173 4.14974 18.3451 5.14359 19.279C6.99686 21.0296 9.45061 22.0034 12 22C14.5494 22.0034 17.0031 21.0296 18.8564 19.279ZM5.99488 17.961C6.71496 17.0601 7.62873 16.333 8.66835 15.8338C9.70796 15.3345 10.8467 15.0758 12 15.0769C13.1533 15.0758 14.292 15.3345 15.3317 15.8338C16.3713 16.333 17.285 17.0601 18.0051 17.961C17.2195 18.7546 16.2842 19.3842 15.2533 19.8134C14.2225 20.2427 13.1166 20.463 12 20.4615C10.8834 20.463 9.77754 20.2427 8.7467 19.8134C7.71585 19.3842 6.78049 18.7546 5.99488 17.961ZM15.8462 8.92307C15.8462 9.94314 15.4409 10.9214 14.7196 11.6427C13.9983 12.364 13.0201 12.7692 12 12.7692C10.9799 12.7692 10.0017 12.364 9.28036 11.6427C8.55907 10.9214 8.15385 9.94314 8.15385 8.92307C8.15385 7.90301 8.55907 6.92473 9.28036 6.20343C10.0017 5.48214 10.9799 5.07692 12 5.07692C13.0201 5.07692 13.9983 5.48214 14.7196 6.20343C15.4409 6.92473 15.8462 7.90301 15.8462 8.92307Z" fill="black"/>
</svg>
